HIERARCHY
ROOT Hip
{
	OFFSET 1.693791 -0.682932 -0.556875
	CHANNELS 6 Xposition Yposition Zposition Xrotation Yrotation Zrotation
	JOINT LowerSpine
	{
		OFFSET -0.032607 0.112973 0.278635
		CHANNELS 6 Xposition Yposition Zposition Xrotation Yrotation Zrotation
		JOINT MiddleSpine
		{
			OFFSET 0.024022 -0.037839 0.233147
			CHANNELS 3 Xrotation Yrotation Zrotation
			JOINT Chest
			{
				OFFSET 0.004097 0.020339 0.298559
				CHANNELS 3 Xrotation Yrotation Zrotation
				JOINT Neck
				{
					OFFSET 0.051635 -0.065286 0.656136
					CHANNELS 6 Xposition Yposition Zposition Xrotation Yrotation Zrotation
					JOINT Head
					{
						OFFSET 0.067485 -0.137317 0.355470
						CHANNELS 3 Xrotation Yrotation Zrotation
						End Site
						{
							OFFSET 0.005107 -0.007704 0.052850
						}
					}
				}
				JOINT LClavicle
				{
					OFFSET 0.179506 -0.234424 0.602006
					CHANNELS 6 Xposition Yposition Zposition Xrotation Yrotation Zrotation
					JOINT LShoulder
					{
						OFFSET 0.282531 0.253195 0.098005
						CHANNELS 3 Xrotation Yrotation Zrotation
						JOINT LForearm
						{
							OFFSET 0.769179 0.306195 -0.032889
							CHANNELS 3 Xrotation Yrotation Zrotation
							JOINT LHand
							{
								OFFSET 0.642686 0.253204 -0.023284
								CHANNELS 3 Xrotation Yrotation Zrotation
								JOINT LFinger1
								{
									OFFSET 0.277839 0.025183 0.002849
									CHANNELS 6 Xposition Yposition Zposition Xrotation Yrotation Zrotation
									JOINT LFinger11
									{
										OFFSET 0.097522 0.022686 -0.030374
										CHANNELS 3 Xrotation Yrotation Zrotation
										JOINT LFinger12
										{
											OFFSET 0.066577 0.015483 -0.020740
											CHANNELS 3 Xrotation Yrotation Zrotation
											End Site
											{
												OFFSET 0.048960 0.012481 -0.018049
											}
										}
									}
								}
								JOINT LFinger2
								{
									OFFSET 0.257891 0.089052 0.015710
									CHANNELS 6 Xposition Yposition Zposition Xrotation Yrotation Zrotation
									JOINT LFinger21
									{
										OFFSET 0.115203 0.045378 -0.004190
										CHANNELS 3 Xrotation Yrotation Zrotation
										JOINT LFinger22
										{
											OFFSET 0.063854 0.025162 -0.002302
											CHANNELS 3 Xrotation Yrotation Zrotation
											End Site
											{
												OFFSET 0.049573 0.019700 -0.005753
											}
										}
									}
								}
								JOINT LFinger3
								{
									OFFSET 0.220075 0.147355 0.016689
									CHANNELS 6 Xposition Yposition Zposition Xrotation Yrotation Zrotation
									JOINT LFinger31
									{
										OFFSET 0.101776 0.047772 -0.008860
										CHANNELS 3 Xrotation Yrotation Zrotation
										JOINT LFinger32
										{
											OFFSET 0.057993 0.027231 -0.005026
											CHANNELS 3 Xrotation Yrotation Zrotation
											End Site
											{
												OFFSET 0.048122 0.022295 -0.008112
											}
										}
									}
								}
								JOINT LFinger4
								{
									OFFSET 0.184068 0.185856 -0.012318
									CHANNELS 6 Xposition Yposition Zposition Xrotation Yrotation Zrotation
									JOINT LFinger41
									{
										OFFSET 0.056467 0.044306 -0.014208
										CHANNELS 3 Xrotation Yrotation Zrotation
										JOINT LFinger42
										{
											OFFSET 0.041407 0.032496 -0.010403
											CHANNELS 3 Xrotation Yrotation Zrotation
											End Site
											{
												OFFSET 0.041799 0.030578 -0.014015
											}
										}
									}
								}
								JOINT LFinger0
								{
									OFFSET 0.062910 -0.013990 -0.049405
									CHANNELS 6 Xposition Yposition Zposition Xrotation Yrotation Zrotation
									JOINT LFinger01
									{
										OFFSET 0.120722 -0.030780 -0.048175
										CHANNELS 3 Xrotation Yrotation Zrotation
										JOINT LFinger02
										{
											OFFSET 0.078520 -0.017931 -0.033386
											CHANNELS 3 Xrotation Yrotation Zrotation
											End Site
											{
												OFFSET 0.048732 -0.009899 -0.020145
											}
										}
									}
								}
							}
						}
					}
				}
				JOINT RClavicle
				{
					OFFSET 0.067536 -0.277823 0.606499
					CHANNELS 6 Xposition Yposition Zposition Xrotation Yrotation Zrotation
					JOINT RShoulder
					{
						OFFSET -0.371679 -0.000352 0.124278
						CHANNELS 3 Xrotation Yrotation Zrotation
						JOINT RForearm
						{
							OFFSET -0.774746 -0.292228 0.029067
							CHANNELS 3 Xrotation Yrotation Zrotation
							JOINT RHand
							{
								OFFSET -0.645271 -0.246006 0.028400
								CHANNELS 3 Xrotation Yrotation Zrotation
								JOINT RFinger1
								{
									OFFSET -0.221339 -0.168299 0.022883
									CHANNELS 6 Xposition Yposition Zposition Xrotation Yrotation Zrotation
									JOINT RFinger11
									{
										OFFSET -0.089194 -0.049685 -0.022882
										CHANNELS 3 Xrotation Yrotation Zrotation
										JOINT RFinger12
										{
											OFFSET -0.060890 -0.033923 -0.015630
											CHANNELS 3 Xrotation Yrotation Zrotation
											End Site
											{
												OFFSET -0.045709 -0.024212 -0.014250
											}
										}
									}
								}
								JOINT RFinger2
								{
									OFFSET -0.248735 -0.107320 0.036040
									CHANNELS 6 Xposition Yposition Zposition Xrotation Yrotation Zrotation
									JOINT RFinger21
									{
										OFFSET -0.115660 -0.044106 0.005077
										CHANNELS 3 Xrotation Yrotation Zrotation
										JOINT RFinger22
										{
											OFFSET -0.064114 -0.024436 0.002833
											CHANNELS 3 Xrotation Yrotation Zrotation
											End Site
											{
												OFFSET -0.050161 -0.018957 -0.001750
											}
										}
									}
								}
								JOINT RFinger3
								{
									OFFSET -0.260060 -0.038746 0.035959
									CHANNELS 6 Xposition Yposition Zposition Xrotation Yrotation Zrotation
									JOINT RFinger31
									{
										OFFSET -0.107711 -0.033425 -0.000454
										CHANNELS 3 Xrotation Yrotation Zrotation
										JOINT RFinger32
										{
											OFFSET -0.061383 -0.019039 -0.000236
											CHANNELS 3 Xrotation Yrotation Zrotation
											End Site
											{
												OFFSET -0.051005 -0.016126 -0.004134
											}
										}
									}
								}
								JOINT RFinger4
								{
									OFFSET -0.261479 0.013162 0.005561
									CHANNELS 6 Xposition Yposition Zposition Xrotation Yrotation Zrotation
									JOINT RFinger41
									{
										OFFSET -0.072388 -0.005638 -0.009037
										CHANNELS 3 Xrotation Yrotation Zrotation
										JOINT RFinger42
										{
											OFFSET -0.053084 -0.004129 -0.006608
											CHANNELS 3 Xrotation Yrotation Zrotation
											End Site
											{
												OFFSET -0.052334 -0.005908 -0.010238
											}
										}
									}
								}
								JOINT RFinger0
								{
									OFFSET -0.040352 -0.054011 -0.045258
									CHANNELS 6 Xposition Yposition Zposition Xrotation Yrotation Zrotation
									JOINT RFinger01
									{
										OFFSET -0.071535 -0.105301 -0.040466
										CHANNELS 3 Xrotation Yrotation Zrotation
										JOINT RFinger02
										{
											OFFSET -0.048076 -0.067000 -0.028304
											CHANNELS 3 Xrotation Yrotation Zrotation
											End Site
											{
												OFFSET -0.030625 -0.040658 -0.016960
											}
										}
									}
								}
							}
						}
					}
				}
			}
		}
	}
	JOINT RThigh
	{
		OFFSET -0.285243 -0.101277 0.131235
		CHANNELS 6 Xposition Yposition Zposition Xrotation Yrotation Zrotation
		JOINT RShin
		{
			OFFSET -0.123134 0.132283 -1.195794
			CHANNELS 3 Xrotation Yrotation Zrotation
			JOINT RFoot
			{
				OFFSET -0.100556 0.137783 -1.175015
				CHANNELS 3 Xrotation Yrotation Zrotation
				JOINT RToe
				{
					OFFSET 0.085295 -0.237349 -0.166995
					CHANNELS 3 Xrotation Yrotation Zrotation
					End Site
					{
						OFFSET 0.018943 -0.049643 -0.007442
					}
				}
			}
		}
	}
	JOINT LThigh
	{
		OFFSET 0.287340 0.120655 0.108266
		CHANNELS 6 Xposition Yposition Zposition Xrotation Yrotation Zrotation
		JOINT LShin
		{
			OFFSET -0.081678 0.148352 -1.197466
			CHANNELS 3 Xrotation Yrotation Zrotation
			JOINT LFoot
			{
				OFFSET -0.100556 0.137783 -1.175015
				CHANNELS 3 Xrotation Yrotation Zrotation
				JOINT LToe
				{
					OFFSET 0.085295 -0.237351 -0.166999
					CHANNELS 3 Xrotation Yrotation Zrotation
					End Site
					{
						OFFSET 0.018943 -0.049643 -0.007442
					}
				}
			}
		}
	}
}
MOTION
Frames: 4
Frame Time: 0.041667
0.858765 2.572059 2.051398 -19.419116 -17.763071 252.068049 -0.032607 0.112973 0.278635 0.000008 0.000003 0.000012 -3.019457 0.929853 3.962726 -4.603370 8.182008 17.632681 0.051635 -0.065286 0.656136 -21.079251 12.045191 11.526231 -9.795807 1.306731 1.263997 0.179506 -0.234424 0.602007 12.280261 21.658135 -0.696853 -0.119109 29.728231 23.890777 -0.066778 0.101349 -0.839256 -66.200748 1.102558 -5.205278 0.277838 0.025183 0.002849 -0.000003 0.000001 0.000002 1.193410 -3.163369 -0.440712 -0.000001 -0.000012 -0.000003 0.257890 0.089052 0.015710 -0.000001 -0.000000 0.000004 -0.000002 0.000001 -0.000003 0.000001 -0.000000 0.000000 0.220075 0.147355 0.016689 -0.000001 -0.000002 0.000006 -0.000004 0.000000 -0.000001 -0.000001 0.000004 0.000001 0.184067 0.185856 -0.012318 0.000006 0.000002 0.000006 0.000002 -0.000008 0.000001 0.000000 -0.000004 0.000007 0.062909 -0.013990 -0.049405 0.000004 -0.000003 0.000013 0.000060 -0.000262 0.000253 0.000004 0.000004 0.000003 0.067536 -0.277824 0.606500 0.314746 -2.762404 -2.933967 1.748483 -20.368864 3.166536 0.669510 -0.771230 6.970282 -0.000009 0.000041 0.000041 -0.221340 -0.168298 0.022884 -0.000041 -0.000053 -0.000060 0.000001 0.000008 0.000000 -0.000004 0.000020 0.000005 -0.248735 -0.107319 0.036041 -0.000032 -0.000011 -0.000087 -0.000014 0.000007 -0.000013 0.000004 0.000005 -0.000002 -0.260061 -0.038745 0.035959 -0.000010 -0.000026 -0.000108 0.000009 -0.000011 0.000005 -0.000005 0.000002 0.000007 -0.261480 0.013163 0.005561 -0.000006 -0.000040 -0.000153 0.000006 -0.000028 -0.000014 0.000001 -0.000003 0.000004 -0.040352 -0.054011 -0.045258 0.000020 -0.000024 -0.000058 0.000033 -0.000027 0.000004 -0.000020 0.000002 -0.000003 -0.317510 0.006784 0.359572 -39.629137 -1.333968 -9.676828 21.021283 7.744553 -2.285648 -3.030881 8.068110 -12.753368 -7.256682 -2.824080 0.112595 0.232640 0.191540 0.280270 26.155151 -39.863682 7.596489 77.725476 19.025326 -18.878236 0.629280 0.907796 -0.988709 0.003133 0.001213 -0.000132 
0.858040 2.581315 2.056468 -16.852956 -19.372406 258.488755 -0.032607 0.112973 0.278635 0.000010 0.000003 0.000010 -3.053131 1.047343 3.873083 -5.206984 8.129236 17.550089 0.051635 -0.065287 0.656136 -21.025257 12.000021 11.480512 -9.336618 1.312606 1.213926 0.179506 -0.234425 0.602006 3.969913 13.950403 0.830878 -3.577708 36.036908 31.404636 -0.072737 0.110513 -0.918978 -64.588714 5.964558 -6.706955 0.277839 0.025183 0.002848 -0.000007 0.000003 0.000008 1.193409 -3.163365 -0.440708 0.000005 -0.000012 -0.000001 0.257891 0.089053 0.015709 -0.000005 0.000000 0.000001 -0.000001 0.000000 -0.000001 0.000006 -0.000003 0.000001 0.220075 0.147355 0.016688 -0.000002 -0.000002 0.000004 0.000001 -0.000006 0.000003 -0.000001 0.000006 -0.000001 0.184067 0.185856 -0.012319 0.000001 -0.000001 0.000003 0.000003 -0.000002 0.000008 -0.000005 -0.000003 0.000004 0.062909 -0.013990 -0.049406 0.000001 -0.000002 0.000009 0.000070 -0.000286 0.000280 0.000006 0.000000 0.000006 0.067536 -0.277824 0.606500 1.307356 -4.648967 -2.094724 0.455033 -20.771215 -2.213139 0.799462 -0.902677 8.234376 -0.000013 0.000048 0.000039 -0.221338 -0.168298 0.022884 -0.000040 -0.000053 -0.000058 0.000006 0.000006 0.000002 -0.000008 0.000023 0.000002 -0.248734 -0.107319 0.036040 -0.000031 -0.000008 -0.000090 -0.000011 -0.000000 -0.000009 0.000006 0.000008 -0.000003 -0.260060 -0.038745 0.035959 -0.000009 -0.000023 -0.000106 0.000006 -0.000010 0.000005 -0.000006 0.000002 0.000008 -0.261478 0.013163 0.005561 -0.000003 -0.000037 -0.000153 0.000005 -0.000022 -0.000015 0.000001 -0.000003 0.000005 -0.040351 -0.054011 -0.045258 0.000020 -0.000020 -0.000057 0.000032 -0.000024 0.000006 -0.000016 0.000001 -0.000000 -0.318145 0.005879 0.357394 -38.511363 -0.681621 -9.719976 20.373341 7.523974 -2.174173 -3.074531 6.207010 -10.132634 -6.002728 -2.335612 0.118725 0.231792 0.189671 0.274708 27.119273 -40.352898 14.652144 82.994851 19.143004 -20.788669 0.243510 0.546936 -0.655743 0.003121 0.001204 -0.000138 
0.870933 2.595244 2.064782 -13.961236 -21.152059 265.816838 -0.032606 0.112973 0.278635 0.000010 0.000003 0.000010 -3.088552 1.163000 3.759469 -5.647574 7.993524 17.327097 0.051635 -0.065287 0.656136 -20.972596 11.950660 11.432883 -9.015571 1.358999 1.188324 0.179507 -0.234425 0.602007 -0.446769 9.578188 1.187555 -6.328214 40.626395 36.216306 -0.122112 0.185067 -1.536411 -63.090867 10.001559 -8.151140 0.277838 0.025183 0.002848 -0.000004 -0.000006 0.000008 1.193414 -3.163366 -0.440709 -0.000000 -0.000011 -0.000005 0.257890 0.089052 0.015709 -0.000003 0.000000 -0.000001 -0.000001 0.000002 0.000002 0.000002 0.000003 0.000004 0.220076 0.147355 0.016689 -0.000003 -0.000001 0.000002 -0.000004 -0.000001 0.000001 0.000001 0.000008 -0.000004 0.184067 0.185856 -0.012318 0.000000 0.000000 0.000006 0.000005 -0.000001 -0.000003 -0.000004 -0.000001 0.000005 0.062909 -0.013990 -0.049405 0.000003 -0.000004 0.000006 0.000069 -0.000301 0.000295 0.000003 0.000009 0.000012 0.067536 -0.277824 0.606500 1.751881 -5.408975 -1.666547 0.226265 -22.219995 -7.723775 0.945574 -1.043200 9.622266 -0.000011 0.000045 0.000041 -0.221340 -0.168298 0.022884 -0.000039 -0.000060 -0.000060 0.000006 0.000008 0.000000 -0.000006 0.000028 0.000006 -0.248735 -0.107319 0.036040 -0.000030 -0.000017 -0.000086 -0.000008 -0.000001 -0.000012 0.000006 0.000007 -0.000005 -0.260061 -0.038745 0.035959 -0.000009 -0.000028 -0.000107 0.000009 -0.000005 0.000006 -0.000005 0.000006 0.000005 -0.261479 0.013162 0.005561 -0.000002 -0.000040 -0.000154 0.000005 -0.000024 -0.000017 0.000001 -0.000001 0.000003 -0.040352 -0.054012 -0.045258 0.000026 -0.000021 -0.000058 0.000032 -0.000029 0.000006 -0.000020 -0.000002 -0.000003 -0.318918 0.004762 0.354713 -38.347612 0.288968 -9.503381 20.381845 7.526874 -2.175617 -1.395996 2.603524 -4.462244 -4.972677 -1.934205 0.115751 0.230921 0.187750 0.268993 26.431627 -41.255726 21.363114 88.190378 19.096217 -22.675243 0.358105 0.034613 0.135587 0.003097 0.001196 -0.000136 
0.894342 2.614762 2.077539 -10.569440 -23.301776 274.333564 -0.032607 0.112973 0.278635 0.000009 0.000002 0.000012 -3.125586 1.276327 3.623509 -6.347551 7.718652 16.746591 0.051634 -0.065286 0.656136 -20.912627 11.896659 11.379940 -8.836607 1.420632 1.181868 0.179506 -0.234424 0.602007 -2.164126 7.702584 1.215832 -6.488981 44.755812 37.212240 -0.283157 0.438942 -3.611155 -62.227340 12.115760 -9.004664 0.277839 0.025183 0.002848 -0.000007 -0.000001 0.000009 1.193415 -3.163367 -0.440711 0.000002 -0.000013 -0.000005 0.257890 0.089053 0.015709 -0.000003 0.000002 -0.000000 -0.000003 0.000004 0.000001 0.000007 -0.000006 -0.000001 0.220076 0.147356 0.016688 -0.000004 -0.000002 0.000004 -0.000004 0.000000 0.000003 -0.000001 0.000005 -0.000003 0.184068 0.185856 -0.012319 0.000001 -0.000001 0.000003 0.000004 -0.000004 0.000003 -0.000004 0.000000 0.000004 0.062909 -0.013989 -0.049406 0.000002 -0.000007 0.000007 0.000073 -0.000310 0.000309 0.000006 0.000006 0.000003 0.067536 -0.277823 0.606500 1.942539 -5.700869 -1.459132 0.303564 -23.998706 -13.456620 1.109228 -1.192662 11.141644 -0.000012 0.000042 0.000039 -0.221339 -0.168298 0.022884 -0.000039 -0.000051 -0.000063 0.000001 0.000009 0.000001 -0.000003 0.000029 0.000004 -0.248735 -0.107319 0.036040 -0.000030 -0.000013 -0.000089 -0.000009 -0.000001 -0.000011 0.000002 0.000003 -0.000007 -0.260060 -0.038745 0.035959 -0.000008 -0.000028 -0.000107 0.000007 -0.000008 0.000002 -0.000000 0.000003 0.000009 -0.261479 0.013163 0.005561 -0.000005 -0.000036 -0.000154 0.000007 -0.000022 -0.000015 -0.000000 -0.000006 0.000008 -0.040352 -0.054011 -0.045258 0.000023 -0.000021 -0.000062 0.000030 -0.000026 0.000005 -0.000015 -0.000003 0.000001 -0.319828 0.003435 0.351528 -39.246981 1.502009 -9.050913 20.872910 7.694176 -2.259909 2.571092 -1.298392 3.303748 -4.697684 -1.827041 0.113741 0.230028 0.185777 0.263131 23.588547 -42.510240 26.901334 92.752500 18.921888 -24.323509 0.627048 -0.373258 0.858754 0.003076 0.001188 -0.000133 
